- 
http://www.Speed.Cd 
       
http://www.Speed.Cd      fast  and The Hottest Private Tracker on the net

(((--Registration will be open on june every weekend--)))

Please Seed back to make the speed Faster!!!

------------------nfo--------------------------
-[img]http://img7.imageshack.us/img7/8818/badteacher.jpg[/img]


[color=blue][size=4][b]Bad.Teacher.2011.R5.DVDRip.XVID.AC3-5.1.HQ.Hive-CM8[/b][/size][/color]


[b]Thx Hive

CM8 Doing It Right The First Time :D

jp07083 you numpty this R5 DVDRip is for you :D

Sources:
Video: Russian DVD-5
Ochen.plohaya.uchilka.2011.DVD5
Audio: LAP Line + Russian 5.1 Effects
thx


Encode:

Russian DVD was nice, just needed sharpness,rgb,brightness, and denoise
Line-Audio is from LAP, was already great and sync, thx for that. 
Still did the usual cleanup and entered it back into the russian 5.1 track, and cleaned some russian voices of the rears.
got very nice, almost like the retail now.
check sample
enjoy


Video: 720x384 @bitrate 1800 2pass
Audio: English AC3 5.1 @448
Sample: yes included[/b]


[url]http://www.imdb.com/title/tt1284575/[/url]


General
Complete name                    : Bad.Teacher.2011.R5.DVDRip.XVID.AC3-5.1.HQ.Hive-CM8.avi
Format                           : AVI
Format/Info                      : Audio Video Interleave
File size                        : 1.35 GiB
Duration                         : 1h 28mn
Overall bit rate                 : 2 193 Kbps
Writing application              : Nandub v1.0rc2
Writing library                  : Nandub build 1853/release

Video
ID                               : 0
Format                           : MPEG-4 Visual
Format profile                   : Advanced Simple@L5
Format settings, BVOP            : 1
Format settings, QPel            : Yes
Format settings, GMC             : No warppoints
Format settings, Matrix          : Default (H.263)
Muxing mode                      : Packed bitstream
Codec ID                         : XVID
Codec ID/Hint                    : XviD
Duration                         : 1h 28mn
Bit rate                         : 1 799 Kbps
Width                            : 720 pixels
Height                           : 384 pixels
Display aspect ratio             : 1.875
Frame rate                       : 25.000 fps
Color space                      : YUV
Chroma subsampling               : 4:2:0
Bit depth                        : 8 bits
Scan type                        : Progressive
Compression mode                 : Lossy
Bits/(Pixel*Frame)               : 0.260
Stream size                      : 1.11 GiB (82%)
Writing library                  : XviD 1.2.1 (UTC 2008-12-04)

Audio
ID                               : 1
Format                           : AC-3
Format/Info                      : Audio Coding 3
Mode extension                   : CM (complete main)
Codec ID                         : 2000
Duration                         : 1h 28mn
Bit rate mode                    : Constant
Bit rate                         : 384 Kbps
Channel(s)                       : 6 channels
Channel positions                : Front: L C R, Side: L R, LFE
Sampling rate                    : 48.0 KHz
Bit depth                        : 16 bits
Compression mode                 : Lossy
Stream size                      : 242 MiB (18%)
Alignment                        : Split accross interleaves
Interleave, duration             : 40 ms (1.00 video frame)
Interleave, preload duration     : 500 ms



Cameron Diaz         ...  Elizabeth Halsey
Lucy Punch           ...  Amy Squirrel
Jason Segel          ...  Russell Gettis
Justin Timberlake    ...  Scott Delacorte
Phyllis Smith        ...  Lynn Davies
John Michael Higgins ...  Principal Wally Snur


A comedy centered around a foul-mouthed, junior high teacher who, after being dumped by her
sugar daddy, begins to woo a colleague - a move that pits her against a well-loved teacher. 


[img]http://img685.imageshack.us/img685/9484/46254573.png[/img]
[img]http://img708.imageshack.us/img708/7017/babam.png[/img]
[img]http://img838.imageshack.us/img838/1730/bababah.png[/img]
[img]http://img837.imageshack.us/img837/8517/babababap.png[/img]
[img]http://img34.imageshack.us/img34/6408/bababababa.png[/img]
[img]http://img600.imageshack.us/img600/9254/babababababa.png[/img]
[img]http://img220.imageshack.us/img220/6585/bababababababa.png[/img]
[img]http://img580.imageshack.us/img580/1524/babababababababa.png[/img]




Greetz

ViSiON,SiC,SANTi,3LT0N,YanKeeS,MAGNET,THC,T0XiC,LKRG,FANTASIA-PLAY,FANTASIA-M,BHRG,IMAGiNE,WBZ,FLAWL3SS,NOVA,
D2U,Vik,Rapeseed,SAFC,goldadvance,MEMORY100,scumbag,Hero5,KaN1vE,Unevano,Pinnz,Wayne,cedrict wink,
Mr Hive and all P2P groups
Great Work Guys :D

FYS

CM8@hushmail.com